<svg xmlns="http://www.w3.org/2000/svg" width="24" height="24" viewBox="0 0 24 24">
    <g fill="none" fill-rule="evenodd">
        <g fill="#333" fill-rule="nonzero" stroke="#333" stroke-width=".5">
            <path d="M10 0C4.486 0 0 4.486 0 10s4.486 10 10 10 10-4.486 10-10S15.514 0 10 0zm0 19.167C4.945 19.167.833 15.055.833 10S4.945.833 10 .833 19.167 4.945 19.167 10 15.055 19.167 10 19.167z" transform="matrix(0 -1 -1 0 24 24) translate(2 2)"/>
            <path d="M11.787 4.884c-.158-.163-.413-.163-.57 0L6.785 9.467c-.158.163-.158.427 0 .59l4.432 4.583c.079.081.182.122.285.122.103 0 .206-.04.285-.122.157-.163.157-.427 0-.59L7.639 9.763l4.148-4.289c.157-.163.157-.426 0-.589z" transform="matrix(0 -1 -1 0 24 24) translate(2 2)"/>
        </g>
    </g>
</svg>
