<svg xmlns="http://www.w3.org/2000/svg" width="34" height="34" viewBox="0 0 34 34">
    <g fill="none" fill-rule="evenodd">
        <path fill="#C3002F" fill-rule="nonzero" stroke="#C3002F" stroke-width=".5" d="M31.872 13.997c.225 1.646-.276 3.308-1.374 4.557-1.097 1.248-2.683 1.962-4.348 1.955H19.2c-1.414 0-2.56 1.143-2.56 2.553s1.146 2.554 2.56 2.554c1.51-.001 2.785 1.115 2.98 2.608.194 1.493-.753 2.897-2.212 3.281-1.602.406-3.257.564-4.906.467C6.627 31.476.033 24.523.004 16.096-.026 7.668 6.519.669 14.95.114c8.43-.555 15.84 5.524 16.922 13.883zM5.744 5.507C1.558 9.561.168 15.7 2.202 21.156c2.034 5.456 7.107 9.199 12.933 9.54 1.518.088 3.04-.057 4.514-.43.85-.185 1.405-1.003 1.26-1.86-.073-.878-.825-1.545-1.709-1.514-2.12 0-3.84-1.715-3.84-3.83 0-2.116 1.72-3.831 3.84-3.831h6.95c1.297.006 2.533-.549 3.387-1.522.854-.974 1.243-2.269 1.065-3.55-.713-5.515-4.487-10.155-9.75-11.987C15.59.341 9.743 1.631 5.745 5.506zm5.251 14.512c1.102 1.378.876 3.387-.506 4.486-1.383 1.096-3.394.87-4.497-.505-1.102-1.378-.876-3.386.506-4.486 1.382-1.099 3.395-.873 4.497.505zm-3.698.496l-.001-.003c-.83.66-.966 1.865-.305 2.693.661.828 1.87.964 2.7.304.548-.422.826-1.107.726-1.791-.1-.684-.561-1.262-1.208-1.511-.646-.25-1.377-.131-1.912.308zm21.181-7.318c.394 1.719-.684 3.43-2.407 3.823-.827.188-1.696.041-2.415-.41-.719-.45-1.228-1.166-1.417-1.992-.393-1.718.684-3.43 2.407-3.822 1.723-.392 3.439.683 3.832 2.401zM7.352 10.796c1.723.392 2.801 2.104 2.408 3.822-.189.826-.699 1.542-1.417 1.993-.72.45-1.588.597-2.415.409-1.723-.393-2.8-2.104-2.407-3.823.393-1.718 2.108-2.793 3.831-2.401zm17.58 1.245h0c-.757.172-1.336.783-1.466 1.546-.13.764.214 1.53.871 1.943.658.412 1.5.388 2.133-.06s.934-1.233.76-1.988c-.113-.495-.419-.926-.85-1.196-.431-.27-.952-.358-1.449-.245zM4.768 13.48c-.173.755.127 1.54.76 1.989.633.448 1.475.472 2.132.06.658-.412 1.002-1.179.872-1.943-.13-.763-.708-1.374-1.465-1.546-1.034-.235-2.063.41-2.3 1.44zM22.55 5.284c.862.963 1.058 2.349.497 3.512-.767 1.588-2.68 2.255-4.272 1.49-1.166-.56-1.879-1.765-1.806-3.054.072-1.29.916-2.408 2.138-2.834 1.222-.427 2.58-.077 3.443.886zm-9.66-.886c1.221.426 2.065 1.545 2.138 2.834.073 1.289-.64 2.494-1.807 3.055-1.592.762-3.502.095-4.271-1.491-.562-1.163-.366-2.55.497-3.512.862-.963 2.221-1.313 3.443-.886zm5.541 2.182c-.338.698-.22 1.53.297 2.108.517.578 1.333.789 2.066.532.734-.256 1.24-.927 1.283-1.701.043-.774-.386-1.497-1.086-1.833-.954-.457-2.1-.057-2.56.894zm-7.433-.895c-.459.22-.81.614-.979 1.093-.168.48-.138 1.006.083 1.464.46.953 1.608 1.353 2.563.894.955-.46 1.357-1.604.896-2.557-.46-.953-1.608-1.353-2.563-.894z" transform="translate(1.045 1)"/>
    </g>
</svg>
