<svg xmlns="http://www.w3.org/2000/svg" width="32" height="32" viewBox="0 0 32 32">
    <g fill="none">
        <path stroke="#C3002F" stroke-width="1.5" d="M30.587 7.456s0 0 0 0 0 0 0 0zm-.062-.014c-2.724-.608-6.038-1.98-9.642-3.841-2.16-1.115-4.002-2.182-5.074-2.85h-.346c.014-.001.028-.005.03-.006C14.445 1.4 12.59 2.476 10.41 3.6 6.814 5.457 3.508 6.827.78 7.439c-.004.08-.01.17-.012.236C.715 8.949.762 10.517.99 12.31c.333 2.631 1 5.216 2.075 7.628 2.31 5.182 6.244 9.028 12.173 11.024l.08-.007h.622l.08.007c6.982-2.344 11.183-7.208 13.224-13.694.725-2.301 1.12-4.65 1.26-6.918.049-.8.062-1.532.05-2.183-.007-.313-.019-.572-.029-.726zM15.207 30.966l-.017.001.017-.001zm.844 0l.017.001-.017-.001z"/>
        <g fill="#C3002F">
            <path d="M9.182.29C4.172.294.112 4.105.107 8.807c.004.343.3.62.666.625H17.6c.368 0 .667-.28.667-.625C18.262 4.102 14.196.29 9.182.29zm1.565 7.89h-3.13c.086-.75.76-1.319 1.565-1.319.805 0 1.48.57 1.565 1.32zm1.333 0c-.03-.617-.288-1.207-.729-1.667l1.982-2.578c.19-.27.129-.633-.142-.834-.3-.199-.715-.136-.933.142l-2 2.586c-.342-.132-.707-.2-1.076-.2-1.552.007-2.827 1.155-2.898 2.61H1.476c.358-3.745 3.703-6.614 7.71-6.614 4.008 0 7.353 2.869 7.712 6.614l-4.818-.058zM17.289 10.9H2.302c-.368 0-.666.28-.666.626 0 .345.298.625.666.625H17.29c.368 0 .667-.28.667-.625 0-.346-.299-.626-.667-.626z" transform="translate(5.869 6.45)"/>
        </g>
    </g>
</svg>
