<svg xmlns="http://www.w3.org/2000/svg" width="32" height="32" viewBox="0 0 32 32">
    <g fill="none" fill-rule="evenodd">
        <g fill="#FFF" fill-rule="nonzero">
            <path d="M4.245 30.963c2.157.61 5.006.945 8.022.945s5.865-.335 8.021-.945c2.64-.745 3.977-1.824 3.977-3.207 0-1.382-1.338-2.461-3.977-3.207-1.205-.34-2.628-.595-4.175-.753 3.03-5.17 6.03-11.024 6.03-13.92 0-5.445-4.43-9.876-9.876-9.876C6.82 0 2.39 4.43 2.39 9.877c0 2.895 3.001 8.748 6.03 13.918-1.547.16-2.97.414-4.175.754-2.639.746-3.977 1.825-3.977 3.207 0 1.383 1.338 2.462 3.977 3.207zm8.022-28.838c4.274 0 7.752 3.477 7.752 7.752 0 2.195-2.717 7.95-7.267 15.396-.15.245-.39.272-.485.272-.096 0-.335-.027-.486-.272-4.55-7.445-7.266-13.2-7.266-15.396 0-4.275 3.477-7.752 7.752-7.752zM5.208 26.491c1.267-.323 2.785-.55 4.421-.667l.34.557c.493.807 1.352 1.289 2.298 1.289.945 0 1.805-.482 2.298-1.29l.339-.556c1.636.118 3.154.344 4.42.667 1.943.494 2.652 1.051 2.798 1.265-.146.214-.855.771-2.797 1.266-1.928.49-4.434.761-7.058.761-2.624 0-5.131-.27-7.059-.761-1.942-.495-2.651-1.052-2.797-1.266.146-.214.856-.77 2.797-1.265z" transform="translate(2.667)"/>
            <path d="M16.237 9.199c0-2.19-1.781-3.97-3.97-3.97-2.19 0-3.97 1.78-3.97 3.97 0 2.189 1.78 3.97 3.97 3.97 2.189 0 3.97-1.781 3.97-3.97zm-5.815 0c0-1.017.827-1.845 1.845-1.845 1.017 0 1.845.828 1.845 1.845s-.828 1.845-1.845 1.845c-1.018 0-1.845-.828-1.845-1.845z" transform="translate(2.667)"/>
        </g>
    </g>
</svg>
