<svg xmlns="http://www.w3.org/2000/svg" width="32" height="34" viewBox="0 0 32 34">
    <g fill="#C3002F" stroke="#FFF">
        <path d="M28.606 14.545H10.784l4.305-4.304c.568-.568.568-1.49 0-2.057-.568-.568-1.489-.568-2.057 0L6.244 14.97c-.568.568-.568 1.49 0 2.057l6.788 6.788c.284.284.656.426 1.029.426.372 0 .744-.142 1.028-.426.568-.568.568-1.489 0-2.057l-4.305-4.305h17.822c.803 0 1.455-.65 1.455-1.454 0-.803-.652-1.455-1.455-1.455z" transform="translate(1 1)"/>
        <path d="M14.06 29.09H2.91V2.91h11.15c.804 0 1.455-.652 1.455-1.455C15.515.65 14.864 0 14.061 0H1.455C.65 0 0 .651 0 1.455v29.09C0 31.35.651 32 1.455 32H14.06c.803 0 1.454-.651 1.454-1.455 0-.803-.651-1.454-1.454-1.454z" transform="translate(1 1)"/>
    </g>
</svg>
