<svg xmlns="http://www.w3.org/2000/svg" width="32" height="32" viewBox="0 0 32 32">
    <g fill="none" fill-rule="evenodd">
        <path fill="#FFF" fill-rule="nonzero" d="M30.667 16c0 3.91-1.523 7.586-4.288 10.35-2.765 2.765-6.44 4.288-10.35 4.288-3.008 0-5.897-.905-8.356-2.618-1.639-1.14-3.01-2.583-4.052-4.247v3.091H1.333v-6.861h6.862v2.287H5.392c2.195 3.736 6.185 6.06 10.637 6.06 6.81 0 12.35-5.54 12.35-12.35h2.288zM15.914 3.65c4.452 0 8.442 2.324 10.637 6.06h-2.746v2.287h6.804V5.136h-2.287v3.091C27.28 6.563 25.908 5.12 24.27 3.98c-2.46-1.713-5.349-2.618-8.356-2.618-3.908 0-7.574 1.523-10.324 4.29C2.845 8.412 1.333 12.088 1.333 16h2.288c0-6.81 5.514-12.35 12.293-12.35zM11.59 9.423l-1.479 1.467c-.66.66-.73 1.578-.429 2.508.522 1.61 1.071 2.875 3.586 5.39 2.515 2.514 3.847 2.921 5.413 3.566.36.15.7.22 1.02.22.567 0 1.066-.226 1.49-.649l1.471-1.478-3.782-3.787-1.95 1.907c-.517-.379-1.103-.886-1.83-1.612-.734-.734-1.294-1.358-1.717-1.915l1.893-1.909-3.686-3.708z"/>
    </g>
</svg>
