<svg xmlns="http://www.w3.org/2000/svg" width="40" height="42" viewBox="0 0 40 42">
    <g fill="none">
        <path fill="#000" d="M1 3.158c-.001-.006.001.006 0 0z" transform="matrix(-1 0 0 1 40 1)"/>
        <path fill="#FFF" stroke="#FFF" stroke-width=".3" d="M36.786 28.887c-1.263-1.14-2.848-1.647-4.462-1.429l-17.246 2.328-.68-6.788c-.316-3.75-1.165-7.423-2.523-10.918l-.608-1.567c-.479-1.232-1.39-2.19-2.513-2.722.495-1.13.567-2.41.184-3.606l-.013-.034C7.967 1.684 5.68.055 3.096.001c-.632-.013-1.228.268-1.63.772-.402.505-.554 1.16-.416 1.796l5.725 29.693c.07.317.375.517.683.446.309-.07.503-.385.435-.702L3.977 9.919c-.077-.359.009-.728.235-1.012.227-.285.562-.442.919-.436l1.64.035c.34.007.669.06.984.155l.046.014c1.078.339 1.97 1.162 2.403 2.275l.608 1.566c1.317 3.39 2.14 6.952 2.446 10.588v.01l.685 6.825-1.087.146c-.736-1.016-2.008-1.552-3.286-1.26-1.732.398-2.827 2.17-2.442 3.95l.002.01 1.402 5.988C8.7 39.496 9.323 40 10.046 40h21.997c1.624 0 2.947-1.348 2.969-3.013h1.336c1.462 0 2.652-1.313 2.652-2.928 0-2.018-.807-3.903-2.214-5.172zM7.657 7.426c-.28-.057-.569-.09-.862-.097l-1.64-.035c-.62-.014-1.21.227-1.65.667L2.165 2.31c-.058-.28.01-.568.186-.79.178-.223.443-.347.722-.342 2.116.045 3.991 1.376 4.783 3.394.3.95.225 1.968-.199 2.855zm2.389 31.397h0c-.192 0-.357-.134-.401-.325l-1.4-5.982c-.246-1.147.46-2.286 1.574-2.542 1.116-.256 2.228.47 2.478 1.623l1.634 7.226h-3.885zm26.302-3.012h-6.454c-.316 0-.573.263-.573.588 0 .325.257.588.573.588h3.973c-.021 1.016-.831 1.836-1.824 1.836H15.106l-.415-1.836h15.54c.316 0 .572-.263.572-.588 0-.325-.256-.588-.572-.588H14.425l-1.012-4.475c-.01-.045-.021-.09-.033-.134l19.092-2.577c1.284-.173 2.548.234 3.56 1.147 1.159 1.045 1.824 2.608 1.824 4.287 0 .966-.677 1.752-1.508 1.752z" transform="matrix(-1 0 0 1 40 1)"/>
    </g>
</svg>
