<svg xmlns="http://www.w3.org/2000/svg" width="32" height="32" viewBox="0 0 32 32">
    <g fill="#C3002F" fill-rule="evenodd" stroke="#C3002F">
        <path fill-rule="nonzero" stroke-width=".3" d="M1.165 10.923h1.737c.591 1.356 1.906 1.825 2.936 1.047.331-.25.606-.612.796-1.047h9.962c.59 1.356 1.905 1.825 2.935 1.048.335-.253.611-.62.802-1.06.04-.01.08-.029.116-.056l1.802-1.423c.108-.086.175-.24.175-.406V4.758c-.001-.056-.01-.111-.026-.164l-.013-.04c-.005-.014-.007-.028-.013-.04l-.98-2.148.273-.716c.089-.234.017-.519-.161-.636-.033-.021-.067-.036-.102-.043L19.55.564 18.67.37C14.356-.559 9.929.395 6.066 3.09l-1.063.746-1.621.474C2.279 4.63 1.346 5.587.843 6.917c-.025.066-.038.138-.039.212v3.32c0 .261.162.474.36.474zm4.923-.664c-.32.956-1.169 1.39-1.896.97-.727-.421-1.057-1.538-.737-2.495.32-.957 1.169-1.39 1.896-.97.523.303.86.984.859 1.736 0 .261-.043.52-.122.759h0zm13.693 0c-.32.956-1.168 1.39-1.895.97-.727-.421-1.057-1.538-.737-2.495.32-.957 1.168-1.39 1.895-.97.523.303.86.984.86 1.736-.002.261-.043.52-.123.759h0zm1.924-4.079h-.901l-.54-.948h1.44v.948zm-7.26-5.169c1.374-.097 2.751.003 4.108.298l.19.041-1.872 2.46h-2.73l.304-2.799zm2.575 3.747c.096 0 .187-.05.255-.14l2.34-3.079 1.189.261-.144.375c-.055.145-.05.317.013.456l.756 1.652h-1.886c-.2 0-.36.213-.36.475 0 .102.025.202.071.284l1.081 1.897c.069.12.175.19.289.19h1.08v1.628l-1.08.855.002-.112c0-1.571-.969-2.845-2.163-2.845S16.301 7.929 16.301 9.5c.001.142.01.284.028.424.001.017 0 .034.003.05h-2.86l.566-5.216h2.982zm-3.31-3.68l-.297 2.731H6.572c2.222-1.512 4.646-2.44 7.138-2.731zm-12.185 7h.72v-.95h-.667C2 6.164 2.711 5.476 3.537 5.236l1.631-.477h8.14l-.564 5.216H6.9c0-.016 0-.033.003-.05.017-.14.026-.282.027-.424 0-1.571-.968-2.845-2.162-2.845S2.606 7.929 2.606 9.5c0 .142.01.284.028.424.001.017 0 .034.002.05h-1.11V8.077z" transform="translate(0 1)"/>
        <path d="M27.857 8.591l-.18-.263L5.965 23.137l.282.413.069-.014.18.264L28.206 8.99l-.281-.413-.069.014z" transform="translate(0 1)"/>
        <path fill-rule="nonzero" stroke-width=".3" d="M9.623 29.347h1.738c.591 1.356 1.906 1.825 2.936 1.047.331-.25.606-.611.796-1.047h9.962c.59 1.356 1.904 1.825 2.935 1.048.334-.253.611-.619.801-1.06.041-.01.08-.029.117-.056l1.801-1.423c.109-.085.175-.24.175-.406v-4.268c0-.056-.01-.111-.025-.163l-.013-.041c-.005-.014-.007-.027-.013-.04l-.98-2.148.273-.716c.089-.234.016-.519-.162-.636-.032-.02-.066-.035-.101-.043l-1.854-.407-.88-.193c-4.314-.93-8.741.024-12.605 2.718l-1.062.746-1.622.474c-1.102.32-2.035 1.279-2.538 2.609-.025.065-.039.138-.039.211v3.32c0 .262.161.474.36.474zm4.924-.664c-.32.957-1.169 1.391-1.896.97-.727-.421-1.057-1.538-.737-2.495.32-.956 1.169-1.39 1.895-.97.523.303.86.984.86 1.736-.001.262-.043.52-.123.759h0zm13.693 0c-.32.957-1.169 1.391-1.896.97-.727-.421-1.057-1.538-.737-2.495.32-.956 1.169-1.39 1.896-.97.523.303.86.984.859 1.736 0 .262-.042.52-.122.759h0zm1.924-4.078h-.901l-.54-.949h1.44v.949zm-7.26-5.17c1.373-.096 2.75.003 4.108.298l.19.042-1.872 2.459H22.6l.304-2.798zm2.575 3.747c.096 0 .187-.05.255-.139l2.34-3.08 1.189.262-.145.374c-.055.145-.05.317.014.456l.755 1.653h-1.886c-.199 0-.36.212-.36.474 0 .103.025.202.072.284l1.081 1.897c.068.12.175.19.289.19h1.08v1.629l-1.08.855.001-.113c0-1.571-.968-2.845-2.162-2.845s-2.162 1.274-2.162 2.845c0 .142.01.284.027.424.002.017 0 .034.003.05h-2.86l.567-5.216h2.982zm-3.31-3.68l-.297 2.732H15.03c2.221-1.513 4.646-2.44 7.137-2.732zm-12.185 7h.72v-.949h-.667c.421-.966 1.132-1.653 1.959-1.894l1.63-.477h8.141l-.564 5.216h-5.844c0-.016 0-.033.003-.05.017-.14.026-.282.027-.424 0-1.571-.968-2.845-2.162-2.845s-2.162 1.274-2.162 2.845c0 .142.01.284.027.424.002.017 0 .034.003.05H9.984v-1.896z" transform="translate(0 1)"/>
    </g>
</svg>
