<svg xmlns="http://www.w3.org/2000/svg" width="32" height="32" viewBox="0 0 32 32">
    <g fill="none" fill-rule="evenodd">
        <path fill="#C3002F" fill-rule="nonzero" d="M2.198 28.47l-2.06-2.06c-.184-.184-.184-.482 0-.665l.665-.666c.184-.184.482-.184.666 0l2.06 2.06 2.061-2.06c.184-.184.482-.184.665 0l.666.666c.184.183.184.481 0 .665l-2.06 2.06 2.06 2.061c.184.184.184.482 0 .666l-.666.665c-.183.184-.481.184-.665 0l-2.06-2.06-2.061 2.06c-.184.184-.482.184-.666 0l-.665-.665c-.184-.184-.184-.482 0-.666l2.06-2.06zm14.273-15.294h10.353c.52 0 .94.422.94.942v8c0 .26-.21.47-.47.47h-.941c-.26 0-.47-.21-.47-.47v-7.06H16.47v7.06c0 .26-.211.47-.471.47h-.941c-.26 0-.47-.21-.47-.47v-7.06H5.175v7.06c0 .26-.21.47-.47.47h-.941c-.26 0-.47-.21-.47-.47v-8c0-.52.42-.942.94-.942h10.353v-4.32c.305.056.62.085.941.085.322 0 .636-.03.942-.085v4.32zm3.432 11.903l.665.666c.184.183.184.481 0 .665l-4.373 4.373c-.368.368-.964.368-1.331 0l-2.02-2.02c-.184-.184-.184-.482 0-.666l.665-.665c.184-.184.482-.184.666 0l1.354 1.355 3.708-3.708c.184-.184.482-.184.666 0zm10.823 0l.666.666c.183.183.183.481 0 .665l-4.374 4.373c-.367.368-.963.368-1.33 0l-2.02-2.02c-.185-.184-.185-.482 0-.666l.665-.665c.184-.184.481-.184.665 0l1.355 1.355 3.708-3.708c.183-.184.481-.184.665 0z"/>
        <path stroke="#C3002F" stroke-width="2" d="M15.53 6.53c1.526 0 2.764-1.238 2.764-2.765C18.294 2.238 17.056 1 15.53 1c-1.526 0-2.764 1.238-2.764 2.765 0 1.527 1.238 2.764 2.764 2.764z"/>
    </g>
</svg>
